<svg width="275" height="281" viewBox="0 0 275 281" fill="none" xmlns="http://www.w3.org/2000/svg">
<path d="M137.5 280.996C132.161 281.074 126.894 279.846 122.222 277.434L117.639 275.011C81.9394 256.171 52.2395 228.831 31.5721 195.782C10.9047 162.734 0.0102368 125.161 0.00122453 86.9006V84.9055C-0.0472046 79.8592 1.34166 74.8913 4.02587 70.5096C6.71008 66.128 10.5934 62.4897 15.2789 59.9666L122.222 3.81849C126.867 1.31695 132.136 0 137.5 0C142.864 0 148.133 1.31695 152.778 3.81849L259.721 59.9666C264.407 62.4897 268.29 66.128 270.974 70.5096C273.658 74.8913 275.047 79.8592 274.999 84.9055V86.9006C274.959 125.189 264.019 162.781 243.296 195.832C222.573 228.883 192.812 256.208 157.055 275.011L152.472 277.434C147.891 279.798 142.736 281.025 137.5 280.996Z" fill="url(#paint0_linear_241_189)"/>
<path d="M186.526 116.758H147.619L160.291 67.7462C160.537 66.7914 160.549 65.7968 160.326 64.8371C160.103 63.8775 159.65 62.9778 159.002 62.206C158.354 61.4341 157.527 60.8101 156.584 60.3809C155.641 59.9518 154.607 59.7287 153.559 59.7285H110.497C108.943 59.7271 107.433 60.2155 106.211 61.1153C104.988 62.0151 104.125 63.2739 103.758 64.6894L82.9951 145.02C82.7481 145.976 82.7358 146.971 82.9593 147.932C83.1828 148.892 83.6362 149.792 84.2852 150.564C84.9342 151.337 85.7619 151.96 86.7058 152.389C87.6498 152.817 88.6852 153.039 89.7341 153.038H127.152L111.801 212.405C111.519 213.476 111.501 214.593 111.749 215.672C111.996 216.751 112.503 217.763 113.23 218.63C113.957 219.498 114.886 220.199 115.946 220.681C117.005 221.162 118.168 221.41 119.345 221.407H124.224C125.52 221.407 126.795 221.104 127.934 220.524C129.073 219.944 130.039 219.107 130.744 218.089L193.043 127.994C193.808 126.896 194.242 125.625 194.298 124.315C194.355 123.005 194.032 121.705 193.364 120.553C192.696 119.401 191.707 118.44 190.503 117.772C189.3 117.104 187.925 116.753 186.526 116.758Z" fill="url(#paint1_linear_241_189)"/>
<defs>
<linearGradient id="paint0_linear_241_189" x1="137.5" y1="-2.28204e-06" x2="216.731" y2="260.701" gradientUnits="userSpaceOnUse">
<stop stop-color="#DD2832"/>
<stop offset="1" stop-color="#FF30A0"/>
</linearGradient>
<linearGradient id="paint1_linear_241_189" x1="138.553" y1="59.7285" x2="138.553" y2="221.407" gradientUnits="userSpaceOnUse">
<stop stop-color="white"/>
<stop offset="1" stop-color="#B3B3B3"/>
</linearGradient>
</defs>
</svg>
